<?xml version="1.0" standalone="no"?>
<!DOCTYPE svg PUBLIC "-//W3C//DTD SVG 20010904//EN"
 "http://www.w3.org/TR/2001/REC-SVG-20010904/DTD/svg10.dtd">
<svg version="1.0" xmlns="http://www.w3.org/2000/svg"
 width="300.000000pt" height="300.000000pt" viewBox="0 0 300.000000 300.000000"
 preserveAspectRatio="xMidYMid meet">
<metadata>
Created by potrace 1.10, written by Peter Selinger 2001-2011
</metadata>
<g transform="translate(0.000000,300.000000) scale(0.100000,-0.100000)"
fill="#000000" stroke="none">
<path d="M2839 2986 c-2 -3 -25 -7 -49 -10 -153 -19 -413 -100 -670 -209 -273
-115 -679 -369 -911 -568 -64 -56 -71 -59 -111 -55 -24 3 -99 7 -168 11 -69 3
-137 8 -151 11 -21 4 -43 -10 -131 -88 -57 -51 -169 -149 -248 -218 -79 -69
-166 -145 -194 -170 -28 -25 -69 -60 -91 -77 l-40 -33 38 0 c55 0 179 -27 287
-62 89 -29 281 -118 324 -151 20 -15 20 -12 12 -157 -1 -22 -9 -27 -76 -45
-41 -11 -81 -24 -87 -28 -7 -5 -13 -6 -13 -3 0 2 -30 -10 -68 -29 -87 -42
-182 -114 -206 -157 -11 -18 -22 -35 -26 -38 -13 -11 -70 -151 -93 -230 -49
-166 -68 -283 -81 -499 l-6 -104 82 8 c46 4 103 9 128 11 25 2 63 6 85 10 22
3 54 8 70 10 182 27 379 92 479 158 70 47 125 111 174 206 31 59 66 150 77
200 13 59 11 57 87 59 100 2 115 21 16 21 -97 0 -120 -16 -137 -97 -7 -32 -35
-104 -63 -161 -41 -83 -61 -112 -111 -157 -33 -30 -92 -70 -131 -89 -157 -76
-488 -144 -686 -142 l-35 1 2 90 c4 132 51 441 72 470 4 6 13 30 20 55 7 25
31 80 52 122 67 132 164 207 354 270 153 52 140 32 141 205 1 130 4 159 28
238 38 126 93 247 158 347 70 107 169 214 206 221 15 3 77 45 137 94 61 49
135 106 165 126 97 67 250 167 256 167 3 0 18 8 32 19 88 62 315 175 527 261
138 57 326 112 532 155 139 29 151 33 102 34 -31 1 -58 -1 -60 -3z m-1929
-866 c87 -3 130 -9 130 -20 0 -5 -32 -50 -70 -102 -39 -51 -90 -131 -114 -178
-45 -88 -109 -265 -120 -335 -12 -71 -14 -71 -117 -19 -106 53 -225 96 -342
124 -43 11 -82 22 -85 25 -7 7 61 73 163 159 39 32 88 75 110 95 65 60 258
226 283 243 13 9 38 15 55 13 18 -2 66 -4 107 -5z"/>
<path d="M2980 2937 c0 -69 -108 -499 -141 -559 -5 -10 -9 -23 -9 -29 0 -48
-175 -422 -279 -594 -74 -123 -131 -211 -184 -285 -56 -77 -81 -111 -172 -224
-35 -44 -65 -96 -65 -112 0 -34 -216 -201 -338 -263 -107 -54 -327 -121 -399
-121 -18 0 -33 -2 -33 -4 0 -3 25 -52 55 -109 88 -166 149 -349 161 -487 l7
-71 31 38 c17 21 51 61 76 89 25 28 101 115 170 194 69 79 167 190 217 248 88
98 93 106 88 141 -3 20 -9 108 -14 195 l-9 159 57 67 c88 101 253 334 342 480
43 72 79 133 79 135 0 2 28 55 61 116 34 62 65 124 70 138 4 14 22 60 39 101
80 190 128 334 166 504 24 110 43 276 30 276 -3 0 -6 -10 -6 -23z m-866 -1930
c12 -79 14 -223 3 -248 -7 -15 -37 -55 -68 -90 -31 -35 -107 -122 -170 -194
-62 -72 -125 -143 -139 -160 -15 -16 -46 -51 -70 -77 -23 -27 -46 -48 -51 -48
-4 0 -13 25 -19 55 -20 96 -69 236 -125 355 -30 63 -51 117 -47 121 4 3 34 12
67 19 197 41 456 170 574 285 29 29 39 25 45 -18z"/>
<path d="M2163 2571 c-52 -13 -118 -57 -167 -112 -46 -52 -58 -76 -32 -66 131
50 264 19 361 -84 80 -86 112 -204 81 -304 -8 -27 -13 -51 -11 -53 7 -7 59 35
102 81 115 125 109 327 -14 451 -56 57 -133 90 -218 93 -38 1 -84 -2 -102 -6z
m148 -32 c33 -7 77 -26 110 -48 110 -74 155 -234 100 -356 -22 -49 -48 -85
-61 -85 -4 0 -10 29 -12 64 -14 173 -158 318 -331 335 -34 3 -62 11 -61 16 1
18 78 63 124 73 61 14 69 14 131 1z"/>
<path d="M1823 1896 c-115 -54 -423 -276 -743 -536 -343 -278 -357 -294 -385
-412 -14 -63 -32 -269 -24 -277 13 -13 236 11 322 36 68 19 86 35 231 208 408
487 696 893 696 983 0 30 -30 29 -97 -2z m57 -31 c0 -45 -246 -405 -442 -645
-15 -19 -73 -90 -127 -158 -166 -205 -255 -302 -278 -302 -7 0 -13 -4 -13 -10
0 -5 -11 -10 -25 -10 -14 0 -25 -5 -25 -12 0 -6 -3 -9 -6 -6 -3 4 -20 2 -37
-3 -18 -5 -65 -11 -106 -14 -41 -3 -77 -7 -80 -10 -4 -2 -13 0 -21 5 -22 14
-19 181 5 262 17 55 29 73 94 139 131 131 605 504 850 669 147 99 211 128 211
95z"/>
</g>
</svg>
